%TF.GenerationSoftware,KiCad,Pcbnew,7.0.2*%
%TF.CreationDate,2023-05-06T18:38:25+05:30*%
%TF.ProjectId,Mod-Ckt-Pulser,4d6f642d-436b-4742-9d50-756c7365722e,rev?*%
%TF.SameCoordinates,Original*%
%TF.FileFunction,Drillmap*%
%TF.FilePolarity,Positive*%
%FSLAX45Y45*%
G04 Gerber Fmt 4.5, Leading zero omitted, Abs format (unit mm)*
G04 Created by KiCad (PCBNEW 7.0.2) date 2023-05-06 18:38:25*
%MOMM*%
%LPD*%
G01*
G04 APERTURE LIST*
%ADD10C,0.100000*%
%ADD11C,0.200000*%
%ADD12C,0.070000*%
%ADD13C,0.080000*%
%ADD14C,0.110000*%
%ADD15C,0.130000*%
G04 APERTURE END LIST*
D10*
X10014082Y-8601930D02*
G75*
G03*
X10316087Y-8302975I1525J300480D01*
G01*
X6311070Y-8300082D02*
G75*
G03*
X6610024Y-8602087I300480J-1525D01*
G01*
X6611918Y-5346070D02*
G75*
G03*
X6309913Y-5645024I-1525J-300480D01*
G01*
X10310930Y-5647918D02*
G75*
G03*
X10011976Y-5345913I-300480J1525D01*
G01*
X6610024Y-8602087D02*
X10014082Y-8601930D01*
X6309913Y-5645024D02*
X6311070Y-8300082D01*
X10011976Y-5345913D02*
X6611918Y-5346070D01*
X10310930Y-5647918D02*
X10316087Y-8302975D01*
D11*
D12*
X6763000Y-6936000D02*
X6833000Y-7006000D01*
X6833000Y-6936000D02*
X6763000Y-7006000D01*
X7271000Y-6936000D02*
X7341000Y-7006000D01*
X7341000Y-6936000D02*
X7271000Y-7006000D01*
X8759000Y-7521000D02*
X8829000Y-7591000D01*
X8829000Y-7521000D02*
X8759000Y-7591000D01*
X8759000Y-8029000D02*
X8829000Y-8099000D01*
X8829000Y-8029000D02*
X8759000Y-8099000D01*
D13*
X7229000Y-7339489D02*
G75*
G03*
X7229000Y-7339489I-40000J0D01*
G01*
X7229000Y-7539489D02*
G75*
G03*
X7229000Y-7539489I-40000J0D01*
G01*
X7833000Y-6599000D02*
G75*
G03*
X7833000Y-6599000I-40000J0D01*
G01*
X7833000Y-6853000D02*
G75*
G03*
X7833000Y-6853000I-40000J0D01*
G01*
X7833000Y-7107000D02*
G75*
G03*
X7833000Y-7107000I-40000J0D01*
G01*
X7833000Y-7361000D02*
G75*
G03*
X7833000Y-7361000I-40000J0D01*
G01*
X7949000Y-7663000D02*
G75*
G03*
X7949000Y-7663000I-40000J0D01*
G01*
X8199000Y-7663000D02*
G75*
G03*
X8199000Y-7663000I-40000J0D01*
G01*
X8595000Y-6599000D02*
G75*
G03*
X8595000Y-6599000I-40000J0D01*
G01*
X8595000Y-6853000D02*
G75*
G03*
X8595000Y-6853000I-40000J0D01*
G01*
X8595000Y-7107000D02*
G75*
G03*
X8595000Y-7107000I-40000J0D01*
G01*
X8595000Y-7361000D02*
G75*
G03*
X8595000Y-7361000I-40000J0D01*
G01*
D14*
X6952000Y-8048500D02*
X6952000Y-8158500D01*
X6897000Y-8103500D02*
X7007000Y-8103500D01*
X7206000Y-8048500D02*
X7206000Y-8158500D01*
X7151000Y-8103500D02*
X7261000Y-8103500D01*
X7460000Y-8048500D02*
X7460000Y-8158500D01*
X7405000Y-8103500D02*
X7515000Y-8103500D01*
X7892000Y-5880000D02*
X7892000Y-5990000D01*
X7837000Y-5935000D02*
X7947000Y-5935000D01*
X8146000Y-5880000D02*
X8146000Y-5990000D01*
X8091000Y-5935000D02*
X8201000Y-5935000D01*
X8400000Y-5880000D02*
X8400000Y-5990000D01*
X8345000Y-5935000D02*
X8455000Y-5935000D01*
D15*
X6742962Y-5877462D02*
X6742962Y-5785538D01*
X6651038Y-5785538D01*
X6651038Y-5877462D01*
X6742962Y-5877462D01*
X6742962Y-6377462D02*
X6742962Y-6285538D01*
X6651038Y-6285538D01*
X6651038Y-6377462D01*
X6742962Y-6377462D01*
X7242962Y-6127462D02*
X7242962Y-6035538D01*
X7151038Y-6035538D01*
X7151038Y-6127462D01*
X7242962Y-6127462D01*
X9596962Y-5899962D02*
X9596962Y-5808038D01*
X9505038Y-5808038D01*
X9505038Y-5899962D01*
X9596962Y-5899962D01*
X9596962Y-6407962D02*
X9596962Y-6316038D01*
X9505038Y-6316038D01*
X9505038Y-6407962D01*
X9596962Y-6407962D01*
X9606462Y-7353462D02*
X9606462Y-7261538D01*
X9514538Y-7261538D01*
X9514538Y-7353462D01*
X9606462Y-7353462D01*
X9606462Y-7861462D02*
X9606462Y-7769538D01*
X9514538Y-7769538D01*
X9514538Y-7861462D01*
X9606462Y-7861462D01*
D11*
X6552532Y-8919611D02*
X6552532Y-8719611D01*
X6552532Y-8719611D02*
X6600151Y-8719611D01*
X6600151Y-8719611D02*
X6628723Y-8729135D01*
X6628723Y-8729135D02*
X6647770Y-8748182D01*
X6647770Y-8748182D02*
X6657294Y-8767230D01*
X6657294Y-8767230D02*
X6666818Y-8805325D01*
X6666818Y-8805325D02*
X6666818Y-8833896D01*
X6666818Y-8833896D02*
X6657294Y-8871992D01*
X6657294Y-8871992D02*
X6647770Y-8891039D01*
X6647770Y-8891039D02*
X6628723Y-8910087D01*
X6628723Y-8910087D02*
X6600151Y-8919611D01*
X6600151Y-8919611D02*
X6552532Y-8919611D01*
X6752532Y-8919611D02*
X6752532Y-8786277D01*
X6752532Y-8824373D02*
X6762056Y-8805325D01*
X6762056Y-8805325D02*
X6771580Y-8795801D01*
X6771580Y-8795801D02*
X6790627Y-8786277D01*
X6790627Y-8786277D02*
X6809675Y-8786277D01*
X6876342Y-8919611D02*
X6876342Y-8786277D01*
X6876342Y-8719611D02*
X6866818Y-8729135D01*
X6866818Y-8729135D02*
X6876342Y-8738658D01*
X6876342Y-8738658D02*
X6885865Y-8729135D01*
X6885865Y-8729135D02*
X6876342Y-8719611D01*
X6876342Y-8719611D02*
X6876342Y-8738658D01*
X7000151Y-8919611D02*
X6981103Y-8910087D01*
X6981103Y-8910087D02*
X6971580Y-8891039D01*
X6971580Y-8891039D02*
X6971580Y-8719611D01*
X7104913Y-8919611D02*
X7085865Y-8910087D01*
X7085865Y-8910087D02*
X7076342Y-8891039D01*
X7076342Y-8891039D02*
X7076342Y-8719611D01*
X7333484Y-8919611D02*
X7333484Y-8719611D01*
X7333484Y-8719611D02*
X7400151Y-8862468D01*
X7400151Y-8862468D02*
X7466818Y-8719611D01*
X7466818Y-8719611D02*
X7466818Y-8919611D01*
X7647770Y-8919611D02*
X7647770Y-8814849D01*
X7647770Y-8814849D02*
X7638246Y-8795801D01*
X7638246Y-8795801D02*
X7619199Y-8786277D01*
X7619199Y-8786277D02*
X7581103Y-8786277D01*
X7581103Y-8786277D02*
X7562056Y-8795801D01*
X7647770Y-8910087D02*
X7628723Y-8919611D01*
X7628723Y-8919611D02*
X7581103Y-8919611D01*
X7581103Y-8919611D02*
X7562056Y-8910087D01*
X7562056Y-8910087D02*
X7552532Y-8891039D01*
X7552532Y-8891039D02*
X7552532Y-8871992D01*
X7552532Y-8871992D02*
X7562056Y-8852944D01*
X7562056Y-8852944D02*
X7581103Y-8843420D01*
X7581103Y-8843420D02*
X7628723Y-8843420D01*
X7628723Y-8843420D02*
X7647770Y-8833896D01*
X7743008Y-8786277D02*
X7743008Y-8986277D01*
X7743008Y-8795801D02*
X7762056Y-8786277D01*
X7762056Y-8786277D02*
X7800151Y-8786277D01*
X7800151Y-8786277D02*
X7819199Y-8795801D01*
X7819199Y-8795801D02*
X7828723Y-8805325D01*
X7828723Y-8805325D02*
X7838246Y-8824373D01*
X7838246Y-8824373D02*
X7838246Y-8881515D01*
X7838246Y-8881515D02*
X7828723Y-8900563D01*
X7828723Y-8900563D02*
X7819199Y-8910087D01*
X7819199Y-8910087D02*
X7800151Y-8919611D01*
X7800151Y-8919611D02*
X7762056Y-8919611D01*
X7762056Y-8919611D02*
X7743008Y-8910087D01*
X7923961Y-8900563D02*
X7933484Y-8910087D01*
X7933484Y-8910087D02*
X7923961Y-8919611D01*
X7923961Y-8919611D02*
X7914437Y-8910087D01*
X7914437Y-8910087D02*
X7923961Y-8900563D01*
X7923961Y-8900563D02*
X7923961Y-8919611D01*
X7923961Y-8795801D02*
X7933484Y-8805325D01*
X7933484Y-8805325D02*
X7923961Y-8814849D01*
X7923961Y-8814849D02*
X7914437Y-8805325D01*
X7914437Y-8805325D02*
X7923961Y-8795801D01*
X7923961Y-8795801D02*
X7923961Y-8814849D01*
D12*
X6234913Y-9212087D02*
X6304913Y-9282087D01*
X6304913Y-9212087D02*
X6234913Y-9282087D01*
D11*
X6590627Y-9139611D02*
X6609675Y-9139611D01*
X6609675Y-9139611D02*
X6628723Y-9149135D01*
X6628723Y-9149135D02*
X6638246Y-9158658D01*
X6638246Y-9158658D02*
X6647770Y-9177706D01*
X6647770Y-9177706D02*
X6657294Y-9215801D01*
X6657294Y-9215801D02*
X6657294Y-9263420D01*
X6657294Y-9263420D02*
X6647770Y-9301515D01*
X6647770Y-9301515D02*
X6638246Y-9320563D01*
X6638246Y-9320563D02*
X6628723Y-9330087D01*
X6628723Y-9330087D02*
X6609675Y-9339611D01*
X6609675Y-9339611D02*
X6590627Y-9339611D01*
X6590627Y-9339611D02*
X6571580Y-9330087D01*
X6571580Y-9330087D02*
X6562056Y-9320563D01*
X6562056Y-9320563D02*
X6552532Y-9301515D01*
X6552532Y-9301515D02*
X6543008Y-9263420D01*
X6543008Y-9263420D02*
X6543008Y-9215801D01*
X6543008Y-9215801D02*
X6552532Y-9177706D01*
X6552532Y-9177706D02*
X6562056Y-9158658D01*
X6562056Y-9158658D02*
X6571580Y-9149135D01*
X6571580Y-9149135D02*
X6590627Y-9139611D01*
X6743008Y-9320563D02*
X6752532Y-9330087D01*
X6752532Y-9330087D02*
X6743008Y-9339611D01*
X6743008Y-9339611D02*
X6733484Y-9330087D01*
X6733484Y-9330087D02*
X6743008Y-9320563D01*
X6743008Y-9320563D02*
X6743008Y-9339611D01*
X6819199Y-9139611D02*
X6952532Y-9139611D01*
X6952532Y-9139611D02*
X6866818Y-9339611D01*
X7066818Y-9139611D02*
X7085865Y-9139611D01*
X7085865Y-9139611D02*
X7104913Y-9149135D01*
X7104913Y-9149135D02*
X7114437Y-9158658D01*
X7114437Y-9158658D02*
X7123961Y-9177706D01*
X7123961Y-9177706D02*
X7133484Y-9215801D01*
X7133484Y-9215801D02*
X7133484Y-9263420D01*
X7133484Y-9263420D02*
X7123961Y-9301515D01*
X7123961Y-9301515D02*
X7114437Y-9320563D01*
X7114437Y-9320563D02*
X7104913Y-9330087D01*
X7104913Y-9330087D02*
X7085865Y-9339611D01*
X7085865Y-9339611D02*
X7066818Y-9339611D01*
X7066818Y-9339611D02*
X7047770Y-9330087D01*
X7047770Y-9330087D02*
X7038246Y-9320563D01*
X7038246Y-9320563D02*
X7028723Y-9301515D01*
X7028723Y-9301515D02*
X7019199Y-9263420D01*
X7019199Y-9263420D02*
X7019199Y-9215801D01*
X7019199Y-9215801D02*
X7028723Y-9177706D01*
X7028723Y-9177706D02*
X7038246Y-9158658D01*
X7038246Y-9158658D02*
X7047770Y-9149135D01*
X7047770Y-9149135D02*
X7066818Y-9139611D01*
X7257294Y-9139611D02*
X7276342Y-9139611D01*
X7276342Y-9139611D02*
X7295389Y-9149135D01*
X7295389Y-9149135D02*
X7304913Y-9158658D01*
X7304913Y-9158658D02*
X7314437Y-9177706D01*
X7314437Y-9177706D02*
X7323961Y-9215801D01*
X7323961Y-9215801D02*
X7323961Y-9263420D01*
X7323961Y-9263420D02*
X7314437Y-9301515D01*
X7314437Y-9301515D02*
X7304913Y-9320563D01*
X7304913Y-9320563D02*
X7295389Y-9330087D01*
X7295389Y-9330087D02*
X7276342Y-9339611D01*
X7276342Y-9339611D02*
X7257294Y-9339611D01*
X7257294Y-9339611D02*
X7238246Y-9330087D01*
X7238246Y-9330087D02*
X7228723Y-9320563D01*
X7228723Y-9320563D02*
X7219199Y-9301515D01*
X7219199Y-9301515D02*
X7209675Y-9263420D01*
X7209675Y-9263420D02*
X7209675Y-9215801D01*
X7209675Y-9215801D02*
X7219199Y-9177706D01*
X7219199Y-9177706D02*
X7228723Y-9158658D01*
X7228723Y-9158658D02*
X7238246Y-9149135D01*
X7238246Y-9149135D02*
X7257294Y-9139611D01*
X7409675Y-9339611D02*
X7409675Y-9206277D01*
X7409675Y-9225325D02*
X7419199Y-9215801D01*
X7419199Y-9215801D02*
X7438246Y-9206277D01*
X7438246Y-9206277D02*
X7466818Y-9206277D01*
X7466818Y-9206277D02*
X7485865Y-9215801D01*
X7485865Y-9215801D02*
X7495389Y-9234849D01*
X7495389Y-9234849D02*
X7495389Y-9339611D01*
X7495389Y-9234849D02*
X7504913Y-9215801D01*
X7504913Y-9215801D02*
X7523961Y-9206277D01*
X7523961Y-9206277D02*
X7552532Y-9206277D01*
X7552532Y-9206277D02*
X7571580Y-9215801D01*
X7571580Y-9215801D02*
X7581104Y-9234849D01*
X7581104Y-9234849D02*
X7581104Y-9339611D01*
X7676342Y-9339611D02*
X7676342Y-9206277D01*
X7676342Y-9225325D02*
X7685865Y-9215801D01*
X7685865Y-9215801D02*
X7704913Y-9206277D01*
X7704913Y-9206277D02*
X7733485Y-9206277D01*
X7733485Y-9206277D02*
X7752532Y-9215801D01*
X7752532Y-9215801D02*
X7762056Y-9234849D01*
X7762056Y-9234849D02*
X7762056Y-9339611D01*
X7762056Y-9234849D02*
X7771580Y-9215801D01*
X7771580Y-9215801D02*
X7790627Y-9206277D01*
X7790627Y-9206277D02*
X7819199Y-9206277D01*
X7819199Y-9206277D02*
X7838246Y-9215801D01*
X7838246Y-9215801D02*
X7847770Y-9234849D01*
X7847770Y-9234849D02*
X7847770Y-9339611D01*
X8238246Y-9130087D02*
X8066818Y-9387230D01*
X8495389Y-9139611D02*
X8514437Y-9139611D01*
X8514437Y-9139611D02*
X8533485Y-9149135D01*
X8533485Y-9149135D02*
X8543009Y-9158658D01*
X8543009Y-9158658D02*
X8552532Y-9177706D01*
X8552532Y-9177706D02*
X8562056Y-9215801D01*
X8562056Y-9215801D02*
X8562056Y-9263420D01*
X8562056Y-9263420D02*
X8552532Y-9301515D01*
X8552532Y-9301515D02*
X8543009Y-9320563D01*
X8543009Y-9320563D02*
X8533485Y-9330087D01*
X8533485Y-9330087D02*
X8514437Y-9339611D01*
X8514437Y-9339611D02*
X8495389Y-9339611D01*
X8495389Y-9339611D02*
X8476342Y-9330087D01*
X8476342Y-9330087D02*
X8466818Y-9320563D01*
X8466818Y-9320563D02*
X8457294Y-9301515D01*
X8457294Y-9301515D02*
X8447770Y-9263420D01*
X8447770Y-9263420D02*
X8447770Y-9215801D01*
X8447770Y-9215801D02*
X8457294Y-9177706D01*
X8457294Y-9177706D02*
X8466818Y-9158658D01*
X8466818Y-9158658D02*
X8476342Y-9149135D01*
X8476342Y-9149135D02*
X8495389Y-9139611D01*
X8647770Y-9320563D02*
X8657294Y-9330087D01*
X8657294Y-9330087D02*
X8647770Y-9339611D01*
X8647770Y-9339611D02*
X8638247Y-9330087D01*
X8638247Y-9330087D02*
X8647770Y-9320563D01*
X8647770Y-9320563D02*
X8647770Y-9339611D01*
X8781104Y-9139611D02*
X8800151Y-9139611D01*
X8800151Y-9139611D02*
X8819199Y-9149135D01*
X8819199Y-9149135D02*
X8828723Y-9158658D01*
X8828723Y-9158658D02*
X8838247Y-9177706D01*
X8838247Y-9177706D02*
X8847770Y-9215801D01*
X8847770Y-9215801D02*
X8847770Y-9263420D01*
X8847770Y-9263420D02*
X8838247Y-9301515D01*
X8838247Y-9301515D02*
X8828723Y-9320563D01*
X8828723Y-9320563D02*
X8819199Y-9330087D01*
X8819199Y-9330087D02*
X8800151Y-9339611D01*
X8800151Y-9339611D02*
X8781104Y-9339611D01*
X8781104Y-9339611D02*
X8762056Y-9330087D01*
X8762056Y-9330087D02*
X8752532Y-9320563D01*
X8752532Y-9320563D02*
X8743009Y-9301515D01*
X8743009Y-9301515D02*
X8733485Y-9263420D01*
X8733485Y-9263420D02*
X8733485Y-9215801D01*
X8733485Y-9215801D02*
X8743009Y-9177706D01*
X8743009Y-9177706D02*
X8752532Y-9158658D01*
X8752532Y-9158658D02*
X8762056Y-9149135D01*
X8762056Y-9149135D02*
X8781104Y-9139611D01*
X8923961Y-9158658D02*
X8933485Y-9149135D01*
X8933485Y-9149135D02*
X8952532Y-9139611D01*
X8952532Y-9139611D02*
X9000151Y-9139611D01*
X9000151Y-9139611D02*
X9019199Y-9149135D01*
X9019199Y-9149135D02*
X9028723Y-9158658D01*
X9028723Y-9158658D02*
X9038247Y-9177706D01*
X9038247Y-9177706D02*
X9038247Y-9196754D01*
X9038247Y-9196754D02*
X9028723Y-9225325D01*
X9028723Y-9225325D02*
X8914437Y-9339611D01*
X8914437Y-9339611D02*
X9038247Y-9339611D01*
X9104913Y-9139611D02*
X9238247Y-9139611D01*
X9238247Y-9139611D02*
X9152532Y-9339611D01*
X9400151Y-9139611D02*
X9362056Y-9139611D01*
X9362056Y-9139611D02*
X9343009Y-9149135D01*
X9343009Y-9149135D02*
X9333485Y-9158658D01*
X9333485Y-9158658D02*
X9314437Y-9187230D01*
X9314437Y-9187230D02*
X9304913Y-9225325D01*
X9304913Y-9225325D02*
X9304913Y-9301515D01*
X9304913Y-9301515D02*
X9314437Y-9320563D01*
X9314437Y-9320563D02*
X9323961Y-9330087D01*
X9323961Y-9330087D02*
X9343009Y-9339611D01*
X9343009Y-9339611D02*
X9381104Y-9339611D01*
X9381104Y-9339611D02*
X9400151Y-9330087D01*
X9400151Y-9330087D02*
X9409675Y-9320563D01*
X9409675Y-9320563D02*
X9419199Y-9301515D01*
X9419199Y-9301515D02*
X9419199Y-9253896D01*
X9419199Y-9253896D02*
X9409675Y-9234849D01*
X9409675Y-9234849D02*
X9400151Y-9225325D01*
X9400151Y-9225325D02*
X9381104Y-9215801D01*
X9381104Y-9215801D02*
X9343009Y-9215801D01*
X9343009Y-9215801D02*
X9323961Y-9225325D01*
X9323961Y-9225325D02*
X9314437Y-9234849D01*
X9314437Y-9234849D02*
X9304913Y-9253896D01*
X9495390Y-9139611D02*
X9495390Y-9177706D01*
X9571580Y-9139611D02*
X9571580Y-9177706D01*
X9866818Y-9415801D02*
X9857294Y-9406277D01*
X9857294Y-9406277D02*
X9838247Y-9377706D01*
X9838247Y-9377706D02*
X9828723Y-9358658D01*
X9828723Y-9358658D02*
X9819199Y-9330087D01*
X9819199Y-9330087D02*
X9809675Y-9282468D01*
X9809675Y-9282468D02*
X9809675Y-9244373D01*
X9809675Y-9244373D02*
X9819199Y-9196754D01*
X9819199Y-9196754D02*
X9828723Y-9168182D01*
X9828723Y-9168182D02*
X9838247Y-9149135D01*
X9838247Y-9149135D02*
X9857294Y-9120563D01*
X9857294Y-9120563D02*
X9866818Y-9111039D01*
X10028723Y-9206277D02*
X10028723Y-9339611D01*
X9981104Y-9130087D02*
X9933485Y-9272944D01*
X9933485Y-9272944D02*
X10057294Y-9272944D01*
X10285866Y-9339611D02*
X10285866Y-9139611D01*
X10371580Y-9339611D02*
X10371580Y-9234849D01*
X10371580Y-9234849D02*
X10362056Y-9215801D01*
X10362056Y-9215801D02*
X10343009Y-9206277D01*
X10343009Y-9206277D02*
X10314437Y-9206277D01*
X10314437Y-9206277D02*
X10295390Y-9215801D01*
X10295390Y-9215801D02*
X10285866Y-9225325D01*
X10495390Y-9339611D02*
X10476342Y-9330087D01*
X10476342Y-9330087D02*
X10466818Y-9320563D01*
X10466818Y-9320563D02*
X10457294Y-9301515D01*
X10457294Y-9301515D02*
X10457294Y-9244373D01*
X10457294Y-9244373D02*
X10466818Y-9225325D01*
X10466818Y-9225325D02*
X10476342Y-9215801D01*
X10476342Y-9215801D02*
X10495390Y-9206277D01*
X10495390Y-9206277D02*
X10523961Y-9206277D01*
X10523961Y-9206277D02*
X10543009Y-9215801D01*
X10543009Y-9215801D02*
X10552533Y-9225325D01*
X10552533Y-9225325D02*
X10562056Y-9244373D01*
X10562056Y-9244373D02*
X10562056Y-9301515D01*
X10562056Y-9301515D02*
X10552533Y-9320563D01*
X10552533Y-9320563D02*
X10543009Y-9330087D01*
X10543009Y-9330087D02*
X10523961Y-9339611D01*
X10523961Y-9339611D02*
X10495390Y-9339611D01*
X10676342Y-9339611D02*
X10657294Y-9330087D01*
X10657294Y-9330087D02*
X10647771Y-9311039D01*
X10647771Y-9311039D02*
X10647771Y-9139611D01*
X10828723Y-9330087D02*
X10809675Y-9339611D01*
X10809675Y-9339611D02*
X10771580Y-9339611D01*
X10771580Y-9339611D02*
X10752533Y-9330087D01*
X10752533Y-9330087D02*
X10743009Y-9311039D01*
X10743009Y-9311039D02*
X10743009Y-9234849D01*
X10743009Y-9234849D02*
X10752533Y-9215801D01*
X10752533Y-9215801D02*
X10771580Y-9206277D01*
X10771580Y-9206277D02*
X10809675Y-9206277D01*
X10809675Y-9206277D02*
X10828723Y-9215801D01*
X10828723Y-9215801D02*
X10838247Y-9234849D01*
X10838247Y-9234849D02*
X10838247Y-9253896D01*
X10838247Y-9253896D02*
X10743009Y-9272944D01*
X10914437Y-9330087D02*
X10933485Y-9339611D01*
X10933485Y-9339611D02*
X10971580Y-9339611D01*
X10971580Y-9339611D02*
X10990628Y-9330087D01*
X10990628Y-9330087D02*
X11000152Y-9311039D01*
X11000152Y-9311039D02*
X11000152Y-9301515D01*
X11000152Y-9301515D02*
X10990628Y-9282468D01*
X10990628Y-9282468D02*
X10971580Y-9272944D01*
X10971580Y-9272944D02*
X10943009Y-9272944D01*
X10943009Y-9272944D02*
X10923961Y-9263420D01*
X10923961Y-9263420D02*
X10914437Y-9244373D01*
X10914437Y-9244373D02*
X10914437Y-9234849D01*
X10914437Y-9234849D02*
X10923961Y-9215801D01*
X10923961Y-9215801D02*
X10943009Y-9206277D01*
X10943009Y-9206277D02*
X10971580Y-9206277D01*
X10971580Y-9206277D02*
X10990628Y-9215801D01*
X11066818Y-9415801D02*
X11076342Y-9406277D01*
X11076342Y-9406277D02*
X11095390Y-9377706D01*
X11095390Y-9377706D02*
X11104914Y-9358658D01*
X11104914Y-9358658D02*
X11114437Y-9330087D01*
X11114437Y-9330087D02*
X11123961Y-9282468D01*
X11123961Y-9282468D02*
X11123961Y-9244373D01*
X11123961Y-9244373D02*
X11114437Y-9196754D01*
X11114437Y-9196754D02*
X11104914Y-9168182D01*
X11104914Y-9168182D02*
X11095390Y-9149135D01*
X11095390Y-9149135D02*
X11076342Y-9120563D01*
X11076342Y-9120563D02*
X11066818Y-9111039D01*
D13*
X6304913Y-9511087D02*
G75*
G03*
X6304913Y-9511087I-40000J0D01*
G01*
D11*
X6590627Y-9403611D02*
X6609675Y-9403611D01*
X6609675Y-9403611D02*
X6628723Y-9413135D01*
X6628723Y-9413135D02*
X6638246Y-9422658D01*
X6638246Y-9422658D02*
X6647770Y-9441706D01*
X6647770Y-9441706D02*
X6657294Y-9479801D01*
X6657294Y-9479801D02*
X6657294Y-9527420D01*
X6657294Y-9527420D02*
X6647770Y-9565515D01*
X6647770Y-9565515D02*
X6638246Y-9584563D01*
X6638246Y-9584563D02*
X6628723Y-9594087D01*
X6628723Y-9594087D02*
X6609675Y-9603611D01*
X6609675Y-9603611D02*
X6590627Y-9603611D01*
X6590627Y-9603611D02*
X6571580Y-9594087D01*
X6571580Y-9594087D02*
X6562056Y-9584563D01*
X6562056Y-9584563D02*
X6552532Y-9565515D01*
X6552532Y-9565515D02*
X6543008Y-9527420D01*
X6543008Y-9527420D02*
X6543008Y-9479801D01*
X6543008Y-9479801D02*
X6552532Y-9441706D01*
X6552532Y-9441706D02*
X6562056Y-9422658D01*
X6562056Y-9422658D02*
X6571580Y-9413135D01*
X6571580Y-9413135D02*
X6590627Y-9403611D01*
X6743008Y-9584563D02*
X6752532Y-9594087D01*
X6752532Y-9594087D02*
X6743008Y-9603611D01*
X6743008Y-9603611D02*
X6733484Y-9594087D01*
X6733484Y-9594087D02*
X6743008Y-9584563D01*
X6743008Y-9584563D02*
X6743008Y-9603611D01*
X6866818Y-9489325D02*
X6847770Y-9479801D01*
X6847770Y-9479801D02*
X6838246Y-9470277D01*
X6838246Y-9470277D02*
X6828723Y-9451230D01*
X6828723Y-9451230D02*
X6828723Y-9441706D01*
X6828723Y-9441706D02*
X6838246Y-9422658D01*
X6838246Y-9422658D02*
X6847770Y-9413135D01*
X6847770Y-9413135D02*
X6866818Y-9403611D01*
X6866818Y-9403611D02*
X6904913Y-9403611D01*
X6904913Y-9403611D02*
X6923961Y-9413135D01*
X6923961Y-9413135D02*
X6933484Y-9422658D01*
X6933484Y-9422658D02*
X6943008Y-9441706D01*
X6943008Y-9441706D02*
X6943008Y-9451230D01*
X6943008Y-9451230D02*
X6933484Y-9470277D01*
X6933484Y-9470277D02*
X6923961Y-9479801D01*
X6923961Y-9479801D02*
X6904913Y-9489325D01*
X6904913Y-9489325D02*
X6866818Y-9489325D01*
X6866818Y-9489325D02*
X6847770Y-9498849D01*
X6847770Y-9498849D02*
X6838246Y-9508373D01*
X6838246Y-9508373D02*
X6828723Y-9527420D01*
X6828723Y-9527420D02*
X6828723Y-9565515D01*
X6828723Y-9565515D02*
X6838246Y-9584563D01*
X6838246Y-9584563D02*
X6847770Y-9594087D01*
X6847770Y-9594087D02*
X6866818Y-9603611D01*
X6866818Y-9603611D02*
X6904913Y-9603611D01*
X6904913Y-9603611D02*
X6923961Y-9594087D01*
X6923961Y-9594087D02*
X6933484Y-9584563D01*
X6933484Y-9584563D02*
X6943008Y-9565515D01*
X6943008Y-9565515D02*
X6943008Y-9527420D01*
X6943008Y-9527420D02*
X6933484Y-9508373D01*
X6933484Y-9508373D02*
X6923961Y-9498849D01*
X6923961Y-9498849D02*
X6904913Y-9489325D01*
X7066818Y-9403611D02*
X7085865Y-9403611D01*
X7085865Y-9403611D02*
X7104913Y-9413135D01*
X7104913Y-9413135D02*
X7114437Y-9422658D01*
X7114437Y-9422658D02*
X7123961Y-9441706D01*
X7123961Y-9441706D02*
X7133484Y-9479801D01*
X7133484Y-9479801D02*
X7133484Y-9527420D01*
X7133484Y-9527420D02*
X7123961Y-9565515D01*
X7123961Y-9565515D02*
X7114437Y-9584563D01*
X7114437Y-9584563D02*
X7104913Y-9594087D01*
X7104913Y-9594087D02*
X7085865Y-9603611D01*
X7085865Y-9603611D02*
X7066818Y-9603611D01*
X7066818Y-9603611D02*
X7047770Y-9594087D01*
X7047770Y-9594087D02*
X7038246Y-9584563D01*
X7038246Y-9584563D02*
X7028723Y-9565515D01*
X7028723Y-9565515D02*
X7019199Y-9527420D01*
X7019199Y-9527420D02*
X7019199Y-9479801D01*
X7019199Y-9479801D02*
X7028723Y-9441706D01*
X7028723Y-9441706D02*
X7038246Y-9422658D01*
X7038246Y-9422658D02*
X7047770Y-9413135D01*
X7047770Y-9413135D02*
X7066818Y-9403611D01*
X7257294Y-9403611D02*
X7276342Y-9403611D01*
X7276342Y-9403611D02*
X7295389Y-9413135D01*
X7295389Y-9413135D02*
X7304913Y-9422658D01*
X7304913Y-9422658D02*
X7314437Y-9441706D01*
X7314437Y-9441706D02*
X7323961Y-9479801D01*
X7323961Y-9479801D02*
X7323961Y-9527420D01*
X7323961Y-9527420D02*
X7314437Y-9565515D01*
X7314437Y-9565515D02*
X7304913Y-9584563D01*
X7304913Y-9584563D02*
X7295389Y-9594087D01*
X7295389Y-9594087D02*
X7276342Y-9603611D01*
X7276342Y-9603611D02*
X7257294Y-9603611D01*
X7257294Y-9603611D02*
X7238246Y-9594087D01*
X7238246Y-9594087D02*
X7228723Y-9584563D01*
X7228723Y-9584563D02*
X7219199Y-9565515D01*
X7219199Y-9565515D02*
X7209675Y-9527420D01*
X7209675Y-9527420D02*
X7209675Y-9479801D01*
X7209675Y-9479801D02*
X7219199Y-9441706D01*
X7219199Y-9441706D02*
X7228723Y-9422658D01*
X7228723Y-9422658D02*
X7238246Y-9413135D01*
X7238246Y-9413135D02*
X7257294Y-9403611D01*
X7409675Y-9603611D02*
X7409675Y-9470277D01*
X7409675Y-9489325D02*
X7419199Y-9479801D01*
X7419199Y-9479801D02*
X7438246Y-9470277D01*
X7438246Y-9470277D02*
X7466818Y-9470277D01*
X7466818Y-9470277D02*
X7485865Y-9479801D01*
X7485865Y-9479801D02*
X7495389Y-9498849D01*
X7495389Y-9498849D02*
X7495389Y-9603611D01*
X7495389Y-9498849D02*
X7504913Y-9479801D01*
X7504913Y-9479801D02*
X7523961Y-9470277D01*
X7523961Y-9470277D02*
X7552532Y-9470277D01*
X7552532Y-9470277D02*
X7571580Y-9479801D01*
X7571580Y-9479801D02*
X7581104Y-9498849D01*
X7581104Y-9498849D02*
X7581104Y-9603611D01*
X7676342Y-9603611D02*
X7676342Y-9470277D01*
X7676342Y-9489325D02*
X7685865Y-9479801D01*
X7685865Y-9479801D02*
X7704913Y-9470277D01*
X7704913Y-9470277D02*
X7733485Y-9470277D01*
X7733485Y-9470277D02*
X7752532Y-9479801D01*
X7752532Y-9479801D02*
X7762056Y-9498849D01*
X7762056Y-9498849D02*
X7762056Y-9603611D01*
X7762056Y-9498849D02*
X7771580Y-9479801D01*
X7771580Y-9479801D02*
X7790627Y-9470277D01*
X7790627Y-9470277D02*
X7819199Y-9470277D01*
X7819199Y-9470277D02*
X7838246Y-9479801D01*
X7838246Y-9479801D02*
X7847770Y-9498849D01*
X7847770Y-9498849D02*
X7847770Y-9603611D01*
X8238246Y-9394087D02*
X8066818Y-9651230D01*
X8495389Y-9403611D02*
X8514437Y-9403611D01*
X8514437Y-9403611D02*
X8533485Y-9413135D01*
X8533485Y-9413135D02*
X8543009Y-9422658D01*
X8543009Y-9422658D02*
X8552532Y-9441706D01*
X8552532Y-9441706D02*
X8562056Y-9479801D01*
X8562056Y-9479801D02*
X8562056Y-9527420D01*
X8562056Y-9527420D02*
X8552532Y-9565515D01*
X8552532Y-9565515D02*
X8543009Y-9584563D01*
X8543009Y-9584563D02*
X8533485Y-9594087D01*
X8533485Y-9594087D02*
X8514437Y-9603611D01*
X8514437Y-9603611D02*
X8495389Y-9603611D01*
X8495389Y-9603611D02*
X8476342Y-9594087D01*
X8476342Y-9594087D02*
X8466818Y-9584563D01*
X8466818Y-9584563D02*
X8457294Y-9565515D01*
X8457294Y-9565515D02*
X8447770Y-9527420D01*
X8447770Y-9527420D02*
X8447770Y-9479801D01*
X8447770Y-9479801D02*
X8457294Y-9441706D01*
X8457294Y-9441706D02*
X8466818Y-9422658D01*
X8466818Y-9422658D02*
X8476342Y-9413135D01*
X8476342Y-9413135D02*
X8495389Y-9403611D01*
X8647770Y-9584563D02*
X8657294Y-9594087D01*
X8657294Y-9594087D02*
X8647770Y-9603611D01*
X8647770Y-9603611D02*
X8638247Y-9594087D01*
X8638247Y-9594087D02*
X8647770Y-9584563D01*
X8647770Y-9584563D02*
X8647770Y-9603611D01*
X8781104Y-9403611D02*
X8800151Y-9403611D01*
X8800151Y-9403611D02*
X8819199Y-9413135D01*
X8819199Y-9413135D02*
X8828723Y-9422658D01*
X8828723Y-9422658D02*
X8838247Y-9441706D01*
X8838247Y-9441706D02*
X8847770Y-9479801D01*
X8847770Y-9479801D02*
X8847770Y-9527420D01*
X8847770Y-9527420D02*
X8838247Y-9565515D01*
X8838247Y-9565515D02*
X8828723Y-9584563D01*
X8828723Y-9584563D02*
X8819199Y-9594087D01*
X8819199Y-9594087D02*
X8800151Y-9603611D01*
X8800151Y-9603611D02*
X8781104Y-9603611D01*
X8781104Y-9603611D02*
X8762056Y-9594087D01*
X8762056Y-9594087D02*
X8752532Y-9584563D01*
X8752532Y-9584563D02*
X8743009Y-9565515D01*
X8743009Y-9565515D02*
X8733485Y-9527420D01*
X8733485Y-9527420D02*
X8733485Y-9479801D01*
X8733485Y-9479801D02*
X8743009Y-9441706D01*
X8743009Y-9441706D02*
X8752532Y-9422658D01*
X8752532Y-9422658D02*
X8762056Y-9413135D01*
X8762056Y-9413135D02*
X8781104Y-9403611D01*
X8914437Y-9403611D02*
X9038247Y-9403611D01*
X9038247Y-9403611D02*
X8971580Y-9479801D01*
X8971580Y-9479801D02*
X9000151Y-9479801D01*
X9000151Y-9479801D02*
X9019199Y-9489325D01*
X9019199Y-9489325D02*
X9028723Y-9498849D01*
X9028723Y-9498849D02*
X9038247Y-9517896D01*
X9038247Y-9517896D02*
X9038247Y-9565515D01*
X9038247Y-9565515D02*
X9028723Y-9584563D01*
X9028723Y-9584563D02*
X9019199Y-9594087D01*
X9019199Y-9594087D02*
X9000151Y-9603611D01*
X9000151Y-9603611D02*
X8943009Y-9603611D01*
X8943009Y-9603611D02*
X8923961Y-9594087D01*
X8923961Y-9594087D02*
X8914437Y-9584563D01*
X9228723Y-9603611D02*
X9114437Y-9603611D01*
X9171580Y-9603611D02*
X9171580Y-9403611D01*
X9171580Y-9403611D02*
X9152532Y-9432182D01*
X9152532Y-9432182D02*
X9133485Y-9451230D01*
X9133485Y-9451230D02*
X9114437Y-9460754D01*
X9409675Y-9403611D02*
X9314437Y-9403611D01*
X9314437Y-9403611D02*
X9304913Y-9498849D01*
X9304913Y-9498849D02*
X9314437Y-9489325D01*
X9314437Y-9489325D02*
X9333485Y-9479801D01*
X9333485Y-9479801D02*
X9381104Y-9479801D01*
X9381104Y-9479801D02*
X9400151Y-9489325D01*
X9400151Y-9489325D02*
X9409675Y-9498849D01*
X9409675Y-9498849D02*
X9419199Y-9517896D01*
X9419199Y-9517896D02*
X9419199Y-9565515D01*
X9419199Y-9565515D02*
X9409675Y-9584563D01*
X9409675Y-9584563D02*
X9400151Y-9594087D01*
X9400151Y-9594087D02*
X9381104Y-9603611D01*
X9381104Y-9603611D02*
X9333485Y-9603611D01*
X9333485Y-9603611D02*
X9314437Y-9594087D01*
X9314437Y-9594087D02*
X9304913Y-9584563D01*
X9495390Y-9403611D02*
X9495390Y-9441706D01*
X9571580Y-9403611D02*
X9571580Y-9441706D01*
X9866818Y-9679801D02*
X9857294Y-9670277D01*
X9857294Y-9670277D02*
X9838247Y-9641706D01*
X9838247Y-9641706D02*
X9828723Y-9622658D01*
X9828723Y-9622658D02*
X9819199Y-9594087D01*
X9819199Y-9594087D02*
X9809675Y-9546468D01*
X9809675Y-9546468D02*
X9809675Y-9508373D01*
X9809675Y-9508373D02*
X9819199Y-9460754D01*
X9819199Y-9460754D02*
X9828723Y-9432182D01*
X9828723Y-9432182D02*
X9838247Y-9413135D01*
X9838247Y-9413135D02*
X9857294Y-9384563D01*
X9857294Y-9384563D02*
X9866818Y-9375039D01*
X10047771Y-9603611D02*
X9933485Y-9603611D01*
X9990628Y-9603611D02*
X9990628Y-9403611D01*
X9990628Y-9403611D02*
X9971580Y-9432182D01*
X9971580Y-9432182D02*
X9952532Y-9451230D01*
X9952532Y-9451230D02*
X9933485Y-9460754D01*
X10123961Y-9422658D02*
X10133485Y-9413135D01*
X10133485Y-9413135D02*
X10152532Y-9403611D01*
X10152532Y-9403611D02*
X10200152Y-9403611D01*
X10200152Y-9403611D02*
X10219199Y-9413135D01*
X10219199Y-9413135D02*
X10228723Y-9422658D01*
X10228723Y-9422658D02*
X10238247Y-9441706D01*
X10238247Y-9441706D02*
X10238247Y-9460754D01*
X10238247Y-9460754D02*
X10228723Y-9489325D01*
X10228723Y-9489325D02*
X10114437Y-9603611D01*
X10114437Y-9603611D02*
X10238247Y-9603611D01*
X10476342Y-9603611D02*
X10476342Y-9403611D01*
X10562056Y-9603611D02*
X10562056Y-9498849D01*
X10562056Y-9498849D02*
X10552533Y-9479801D01*
X10552533Y-9479801D02*
X10533485Y-9470277D01*
X10533485Y-9470277D02*
X10504913Y-9470277D01*
X10504913Y-9470277D02*
X10485866Y-9479801D01*
X10485866Y-9479801D02*
X10476342Y-9489325D01*
X10685866Y-9603611D02*
X10666818Y-9594087D01*
X10666818Y-9594087D02*
X10657294Y-9584563D01*
X10657294Y-9584563D02*
X10647771Y-9565515D01*
X10647771Y-9565515D02*
X10647771Y-9508373D01*
X10647771Y-9508373D02*
X10657294Y-9489325D01*
X10657294Y-9489325D02*
X10666818Y-9479801D01*
X10666818Y-9479801D02*
X10685866Y-9470277D01*
X10685866Y-9470277D02*
X10714437Y-9470277D01*
X10714437Y-9470277D02*
X10733485Y-9479801D01*
X10733485Y-9479801D02*
X10743009Y-9489325D01*
X10743009Y-9489325D02*
X10752533Y-9508373D01*
X10752533Y-9508373D02*
X10752533Y-9565515D01*
X10752533Y-9565515D02*
X10743009Y-9584563D01*
X10743009Y-9584563D02*
X10733485Y-9594087D01*
X10733485Y-9594087D02*
X10714437Y-9603611D01*
X10714437Y-9603611D02*
X10685866Y-9603611D01*
X10866818Y-9603611D02*
X10847771Y-9594087D01*
X10847771Y-9594087D02*
X10838247Y-9575039D01*
X10838247Y-9575039D02*
X10838247Y-9403611D01*
X11019199Y-9594087D02*
X11000152Y-9603611D01*
X11000152Y-9603611D02*
X10962056Y-9603611D01*
X10962056Y-9603611D02*
X10943009Y-9594087D01*
X10943009Y-9594087D02*
X10933485Y-9575039D01*
X10933485Y-9575039D02*
X10933485Y-9498849D01*
X10933485Y-9498849D02*
X10943009Y-9479801D01*
X10943009Y-9479801D02*
X10962056Y-9470277D01*
X10962056Y-9470277D02*
X11000152Y-9470277D01*
X11000152Y-9470277D02*
X11019199Y-9479801D01*
X11019199Y-9479801D02*
X11028723Y-9498849D01*
X11028723Y-9498849D02*
X11028723Y-9517896D01*
X11028723Y-9517896D02*
X10933485Y-9536944D01*
X11104914Y-9594087D02*
X11123961Y-9603611D01*
X11123961Y-9603611D02*
X11162056Y-9603611D01*
X11162056Y-9603611D02*
X11181104Y-9594087D01*
X11181104Y-9594087D02*
X11190628Y-9575039D01*
X11190628Y-9575039D02*
X11190628Y-9565515D01*
X11190628Y-9565515D02*
X11181104Y-9546468D01*
X11181104Y-9546468D02*
X11162056Y-9536944D01*
X11162056Y-9536944D02*
X11133485Y-9536944D01*
X11133485Y-9536944D02*
X11114437Y-9527420D01*
X11114437Y-9527420D02*
X11104914Y-9508373D01*
X11104914Y-9508373D02*
X11104914Y-9498849D01*
X11104914Y-9498849D02*
X11114437Y-9479801D01*
X11114437Y-9479801D02*
X11133485Y-9470277D01*
X11133485Y-9470277D02*
X11162056Y-9470277D01*
X11162056Y-9470277D02*
X11181104Y-9479801D01*
X11257294Y-9679801D02*
X11266818Y-9670277D01*
X11266818Y-9670277D02*
X11285866Y-9641706D01*
X11285866Y-9641706D02*
X11295390Y-9622658D01*
X11295390Y-9622658D02*
X11304913Y-9594087D01*
X11304913Y-9594087D02*
X11314437Y-9546468D01*
X11314437Y-9546468D02*
X11314437Y-9508373D01*
X11314437Y-9508373D02*
X11304913Y-9460754D01*
X11304913Y-9460754D02*
X11295390Y-9432182D01*
X11295390Y-9432182D02*
X11285866Y-9413135D01*
X11285866Y-9413135D02*
X11266818Y-9384563D01*
X11266818Y-9384563D02*
X11257294Y-9375039D01*
D14*
X6249913Y-9720087D02*
X6249913Y-9830087D01*
X6194913Y-9775087D02*
X6304913Y-9775087D01*
D11*
X6657294Y-9867611D02*
X6543008Y-9867611D01*
X6600151Y-9867611D02*
X6600151Y-9667611D01*
X6600151Y-9667611D02*
X6581103Y-9696182D01*
X6581103Y-9696182D02*
X6562056Y-9715230D01*
X6562056Y-9715230D02*
X6543008Y-9724754D01*
X6743008Y-9848563D02*
X6752532Y-9858087D01*
X6752532Y-9858087D02*
X6743008Y-9867611D01*
X6743008Y-9867611D02*
X6733484Y-9858087D01*
X6733484Y-9858087D02*
X6743008Y-9848563D01*
X6743008Y-9848563D02*
X6743008Y-9867611D01*
X6943008Y-9867611D02*
X6828723Y-9867611D01*
X6885865Y-9867611D02*
X6885865Y-9667611D01*
X6885865Y-9667611D02*
X6866818Y-9696182D01*
X6866818Y-9696182D02*
X6847770Y-9715230D01*
X6847770Y-9715230D02*
X6828723Y-9724754D01*
X7066818Y-9667611D02*
X7085865Y-9667611D01*
X7085865Y-9667611D02*
X7104913Y-9677135D01*
X7104913Y-9677135D02*
X7114437Y-9686658D01*
X7114437Y-9686658D02*
X7123961Y-9705706D01*
X7123961Y-9705706D02*
X7133484Y-9743801D01*
X7133484Y-9743801D02*
X7133484Y-9791420D01*
X7133484Y-9791420D02*
X7123961Y-9829515D01*
X7123961Y-9829515D02*
X7114437Y-9848563D01*
X7114437Y-9848563D02*
X7104913Y-9858087D01*
X7104913Y-9858087D02*
X7085865Y-9867611D01*
X7085865Y-9867611D02*
X7066818Y-9867611D01*
X7066818Y-9867611D02*
X7047770Y-9858087D01*
X7047770Y-9858087D02*
X7038246Y-9848563D01*
X7038246Y-9848563D02*
X7028723Y-9829515D01*
X7028723Y-9829515D02*
X7019199Y-9791420D01*
X7019199Y-9791420D02*
X7019199Y-9743801D01*
X7019199Y-9743801D02*
X7028723Y-9705706D01*
X7028723Y-9705706D02*
X7038246Y-9686658D01*
X7038246Y-9686658D02*
X7047770Y-9677135D01*
X7047770Y-9677135D02*
X7066818Y-9667611D01*
X7257294Y-9667611D02*
X7276342Y-9667611D01*
X7276342Y-9667611D02*
X7295389Y-9677135D01*
X7295389Y-9677135D02*
X7304913Y-9686658D01*
X7304913Y-9686658D02*
X7314437Y-9705706D01*
X7314437Y-9705706D02*
X7323961Y-9743801D01*
X7323961Y-9743801D02*
X7323961Y-9791420D01*
X7323961Y-9791420D02*
X7314437Y-9829515D01*
X7314437Y-9829515D02*
X7304913Y-9848563D01*
X7304913Y-9848563D02*
X7295389Y-9858087D01*
X7295389Y-9858087D02*
X7276342Y-9867611D01*
X7276342Y-9867611D02*
X7257294Y-9867611D01*
X7257294Y-9867611D02*
X7238246Y-9858087D01*
X7238246Y-9858087D02*
X7228723Y-9848563D01*
X7228723Y-9848563D02*
X7219199Y-9829515D01*
X7219199Y-9829515D02*
X7209675Y-9791420D01*
X7209675Y-9791420D02*
X7209675Y-9743801D01*
X7209675Y-9743801D02*
X7219199Y-9705706D01*
X7219199Y-9705706D02*
X7228723Y-9686658D01*
X7228723Y-9686658D02*
X7238246Y-9677135D01*
X7238246Y-9677135D02*
X7257294Y-9667611D01*
X7409675Y-9867611D02*
X7409675Y-9734277D01*
X7409675Y-9753325D02*
X7419199Y-9743801D01*
X7419199Y-9743801D02*
X7438246Y-9734277D01*
X7438246Y-9734277D02*
X7466818Y-9734277D01*
X7466818Y-9734277D02*
X7485865Y-9743801D01*
X7485865Y-9743801D02*
X7495389Y-9762849D01*
X7495389Y-9762849D02*
X7495389Y-9867611D01*
X7495389Y-9762849D02*
X7504913Y-9743801D01*
X7504913Y-9743801D02*
X7523961Y-9734277D01*
X7523961Y-9734277D02*
X7552532Y-9734277D01*
X7552532Y-9734277D02*
X7571580Y-9743801D01*
X7571580Y-9743801D02*
X7581104Y-9762849D01*
X7581104Y-9762849D02*
X7581104Y-9867611D01*
X7676342Y-9867611D02*
X7676342Y-9734277D01*
X7676342Y-9753325D02*
X7685865Y-9743801D01*
X7685865Y-9743801D02*
X7704913Y-9734277D01*
X7704913Y-9734277D02*
X7733485Y-9734277D01*
X7733485Y-9734277D02*
X7752532Y-9743801D01*
X7752532Y-9743801D02*
X7762056Y-9762849D01*
X7762056Y-9762849D02*
X7762056Y-9867611D01*
X7762056Y-9762849D02*
X7771580Y-9743801D01*
X7771580Y-9743801D02*
X7790627Y-9734277D01*
X7790627Y-9734277D02*
X7819199Y-9734277D01*
X7819199Y-9734277D02*
X7838246Y-9743801D01*
X7838246Y-9743801D02*
X7847770Y-9762849D01*
X7847770Y-9762849D02*
X7847770Y-9867611D01*
X8238246Y-9658087D02*
X8066818Y-9915230D01*
X8495389Y-9667611D02*
X8514437Y-9667611D01*
X8514437Y-9667611D02*
X8533485Y-9677135D01*
X8533485Y-9677135D02*
X8543009Y-9686658D01*
X8543009Y-9686658D02*
X8552532Y-9705706D01*
X8552532Y-9705706D02*
X8562056Y-9743801D01*
X8562056Y-9743801D02*
X8562056Y-9791420D01*
X8562056Y-9791420D02*
X8552532Y-9829515D01*
X8552532Y-9829515D02*
X8543009Y-9848563D01*
X8543009Y-9848563D02*
X8533485Y-9858087D01*
X8533485Y-9858087D02*
X8514437Y-9867611D01*
X8514437Y-9867611D02*
X8495389Y-9867611D01*
X8495389Y-9867611D02*
X8476342Y-9858087D01*
X8476342Y-9858087D02*
X8466818Y-9848563D01*
X8466818Y-9848563D02*
X8457294Y-9829515D01*
X8457294Y-9829515D02*
X8447770Y-9791420D01*
X8447770Y-9791420D02*
X8447770Y-9743801D01*
X8447770Y-9743801D02*
X8457294Y-9705706D01*
X8457294Y-9705706D02*
X8466818Y-9686658D01*
X8466818Y-9686658D02*
X8476342Y-9677135D01*
X8476342Y-9677135D02*
X8495389Y-9667611D01*
X8647770Y-9848563D02*
X8657294Y-9858087D01*
X8657294Y-9858087D02*
X8647770Y-9867611D01*
X8647770Y-9867611D02*
X8638247Y-9858087D01*
X8638247Y-9858087D02*
X8647770Y-9848563D01*
X8647770Y-9848563D02*
X8647770Y-9867611D01*
X8781104Y-9667611D02*
X8800151Y-9667611D01*
X8800151Y-9667611D02*
X8819199Y-9677135D01*
X8819199Y-9677135D02*
X8828723Y-9686658D01*
X8828723Y-9686658D02*
X8838247Y-9705706D01*
X8838247Y-9705706D02*
X8847770Y-9743801D01*
X8847770Y-9743801D02*
X8847770Y-9791420D01*
X8847770Y-9791420D02*
X8838247Y-9829515D01*
X8838247Y-9829515D02*
X8828723Y-9848563D01*
X8828723Y-9848563D02*
X8819199Y-9858087D01*
X8819199Y-9858087D02*
X8800151Y-9867611D01*
X8800151Y-9867611D02*
X8781104Y-9867611D01*
X8781104Y-9867611D02*
X8762056Y-9858087D01*
X8762056Y-9858087D02*
X8752532Y-9848563D01*
X8752532Y-9848563D02*
X8743009Y-9829515D01*
X8743009Y-9829515D02*
X8733485Y-9791420D01*
X8733485Y-9791420D02*
X8733485Y-9743801D01*
X8733485Y-9743801D02*
X8743009Y-9705706D01*
X8743009Y-9705706D02*
X8752532Y-9686658D01*
X8752532Y-9686658D02*
X8762056Y-9677135D01*
X8762056Y-9677135D02*
X8781104Y-9667611D01*
X9019199Y-9734277D02*
X9019199Y-9867611D01*
X8971580Y-9658087D02*
X8923961Y-9800944D01*
X8923961Y-9800944D02*
X9047770Y-9800944D01*
X9104913Y-9667611D02*
X9228723Y-9667611D01*
X9228723Y-9667611D02*
X9162056Y-9743801D01*
X9162056Y-9743801D02*
X9190628Y-9743801D01*
X9190628Y-9743801D02*
X9209675Y-9753325D01*
X9209675Y-9753325D02*
X9219199Y-9762849D01*
X9219199Y-9762849D02*
X9228723Y-9781896D01*
X9228723Y-9781896D02*
X9228723Y-9829515D01*
X9228723Y-9829515D02*
X9219199Y-9848563D01*
X9219199Y-9848563D02*
X9209675Y-9858087D01*
X9209675Y-9858087D02*
X9190628Y-9867611D01*
X9190628Y-9867611D02*
X9133485Y-9867611D01*
X9133485Y-9867611D02*
X9114437Y-9858087D01*
X9114437Y-9858087D02*
X9104913Y-9848563D01*
X9295390Y-9667611D02*
X9419199Y-9667611D01*
X9419199Y-9667611D02*
X9352532Y-9743801D01*
X9352532Y-9743801D02*
X9381104Y-9743801D01*
X9381104Y-9743801D02*
X9400151Y-9753325D01*
X9400151Y-9753325D02*
X9409675Y-9762849D01*
X9409675Y-9762849D02*
X9419199Y-9781896D01*
X9419199Y-9781896D02*
X9419199Y-9829515D01*
X9419199Y-9829515D02*
X9409675Y-9848563D01*
X9409675Y-9848563D02*
X9400151Y-9858087D01*
X9400151Y-9858087D02*
X9381104Y-9867611D01*
X9381104Y-9867611D02*
X9323961Y-9867611D01*
X9323961Y-9867611D02*
X9304913Y-9858087D01*
X9304913Y-9858087D02*
X9295390Y-9848563D01*
X9495390Y-9667611D02*
X9495390Y-9705706D01*
X9571580Y-9667611D02*
X9571580Y-9705706D01*
X9866818Y-9943801D02*
X9857294Y-9934277D01*
X9857294Y-9934277D02*
X9838247Y-9905706D01*
X9838247Y-9905706D02*
X9828723Y-9886658D01*
X9828723Y-9886658D02*
X9819199Y-9858087D01*
X9819199Y-9858087D02*
X9809675Y-9810468D01*
X9809675Y-9810468D02*
X9809675Y-9772373D01*
X9809675Y-9772373D02*
X9819199Y-9724754D01*
X9819199Y-9724754D02*
X9828723Y-9696182D01*
X9828723Y-9696182D02*
X9838247Y-9677135D01*
X9838247Y-9677135D02*
X9857294Y-9648563D01*
X9857294Y-9648563D02*
X9866818Y-9639039D01*
X10028723Y-9667611D02*
X9990628Y-9667611D01*
X9990628Y-9667611D02*
X9971580Y-9677135D01*
X9971580Y-9677135D02*
X9962056Y-9686658D01*
X9962056Y-9686658D02*
X9943009Y-9715230D01*
X9943009Y-9715230D02*
X9933485Y-9753325D01*
X9933485Y-9753325D02*
X9933485Y-9829515D01*
X9933485Y-9829515D02*
X9943009Y-9848563D01*
X9943009Y-9848563D02*
X9952532Y-9858087D01*
X9952532Y-9858087D02*
X9971580Y-9867611D01*
X9971580Y-9867611D02*
X10009675Y-9867611D01*
X10009675Y-9867611D02*
X10028723Y-9858087D01*
X10028723Y-9858087D02*
X10038247Y-9848563D01*
X10038247Y-9848563D02*
X10047771Y-9829515D01*
X10047771Y-9829515D02*
X10047771Y-9781896D01*
X10047771Y-9781896D02*
X10038247Y-9762849D01*
X10038247Y-9762849D02*
X10028723Y-9753325D01*
X10028723Y-9753325D02*
X10009675Y-9743801D01*
X10009675Y-9743801D02*
X9971580Y-9743801D01*
X9971580Y-9743801D02*
X9952532Y-9753325D01*
X9952532Y-9753325D02*
X9943009Y-9762849D01*
X9943009Y-9762849D02*
X9933485Y-9781896D01*
X10285866Y-9867611D02*
X10285866Y-9667611D01*
X10371580Y-9867611D02*
X10371580Y-9762849D01*
X10371580Y-9762849D02*
X10362056Y-9743801D01*
X10362056Y-9743801D02*
X10343009Y-9734277D01*
X10343009Y-9734277D02*
X10314437Y-9734277D01*
X10314437Y-9734277D02*
X10295390Y-9743801D01*
X10295390Y-9743801D02*
X10285866Y-9753325D01*
X10495390Y-9867611D02*
X10476342Y-9858087D01*
X10476342Y-9858087D02*
X10466818Y-9848563D01*
X10466818Y-9848563D02*
X10457294Y-9829515D01*
X10457294Y-9829515D02*
X10457294Y-9772373D01*
X10457294Y-9772373D02*
X10466818Y-9753325D01*
X10466818Y-9753325D02*
X10476342Y-9743801D01*
X10476342Y-9743801D02*
X10495390Y-9734277D01*
X10495390Y-9734277D02*
X10523961Y-9734277D01*
X10523961Y-9734277D02*
X10543009Y-9743801D01*
X10543009Y-9743801D02*
X10552533Y-9753325D01*
X10552533Y-9753325D02*
X10562056Y-9772373D01*
X10562056Y-9772373D02*
X10562056Y-9829515D01*
X10562056Y-9829515D02*
X10552533Y-9848563D01*
X10552533Y-9848563D02*
X10543009Y-9858087D01*
X10543009Y-9858087D02*
X10523961Y-9867611D01*
X10523961Y-9867611D02*
X10495390Y-9867611D01*
X10676342Y-9867611D02*
X10657294Y-9858087D01*
X10657294Y-9858087D02*
X10647771Y-9839039D01*
X10647771Y-9839039D02*
X10647771Y-9667611D01*
X10828723Y-9858087D02*
X10809675Y-9867611D01*
X10809675Y-9867611D02*
X10771580Y-9867611D01*
X10771580Y-9867611D02*
X10752533Y-9858087D01*
X10752533Y-9858087D02*
X10743009Y-9839039D01*
X10743009Y-9839039D02*
X10743009Y-9762849D01*
X10743009Y-9762849D02*
X10752533Y-9743801D01*
X10752533Y-9743801D02*
X10771580Y-9734277D01*
X10771580Y-9734277D02*
X10809675Y-9734277D01*
X10809675Y-9734277D02*
X10828723Y-9743801D01*
X10828723Y-9743801D02*
X10838247Y-9762849D01*
X10838247Y-9762849D02*
X10838247Y-9781896D01*
X10838247Y-9781896D02*
X10743009Y-9800944D01*
X10914437Y-9858087D02*
X10933485Y-9867611D01*
X10933485Y-9867611D02*
X10971580Y-9867611D01*
X10971580Y-9867611D02*
X10990628Y-9858087D01*
X10990628Y-9858087D02*
X11000152Y-9839039D01*
X11000152Y-9839039D02*
X11000152Y-9829515D01*
X11000152Y-9829515D02*
X10990628Y-9810468D01*
X10990628Y-9810468D02*
X10971580Y-9800944D01*
X10971580Y-9800944D02*
X10943009Y-9800944D01*
X10943009Y-9800944D02*
X10923961Y-9791420D01*
X10923961Y-9791420D02*
X10914437Y-9772373D01*
X10914437Y-9772373D02*
X10914437Y-9762849D01*
X10914437Y-9762849D02*
X10923961Y-9743801D01*
X10923961Y-9743801D02*
X10943009Y-9734277D01*
X10943009Y-9734277D02*
X10971580Y-9734277D01*
X10971580Y-9734277D02*
X10990628Y-9743801D01*
X11066818Y-9943801D02*
X11076342Y-9934277D01*
X11076342Y-9934277D02*
X11095390Y-9905706D01*
X11095390Y-9905706D02*
X11104914Y-9886658D01*
X11104914Y-9886658D02*
X11114437Y-9858087D01*
X11114437Y-9858087D02*
X11123961Y-9810468D01*
X11123961Y-9810468D02*
X11123961Y-9772373D01*
X11123961Y-9772373D02*
X11114437Y-9724754D01*
X11114437Y-9724754D02*
X11104914Y-9696182D01*
X11104914Y-9696182D02*
X11095390Y-9677135D01*
X11095390Y-9677135D02*
X11076342Y-9648563D01*
X11076342Y-9648563D02*
X11066818Y-9639039D01*
D15*
X6285875Y-10085049D02*
X6285875Y-9993125D01*
X6193951Y-9993125D01*
X6193951Y-10085049D01*
X6285875Y-10085049D01*
D11*
X6657294Y-10131611D02*
X6543008Y-10131611D01*
X6600151Y-10131611D02*
X6600151Y-9931611D01*
X6600151Y-9931611D02*
X6581103Y-9960182D01*
X6581103Y-9960182D02*
X6562056Y-9979230D01*
X6562056Y-9979230D02*
X6543008Y-9988754D01*
X6743008Y-10112563D02*
X6752532Y-10122087D01*
X6752532Y-10122087D02*
X6743008Y-10131611D01*
X6743008Y-10131611D02*
X6733484Y-10122087D01*
X6733484Y-10122087D02*
X6743008Y-10112563D01*
X6743008Y-10112563D02*
X6743008Y-10131611D01*
X6819199Y-9931611D02*
X6943008Y-9931611D01*
X6943008Y-9931611D02*
X6876342Y-10007801D01*
X6876342Y-10007801D02*
X6904913Y-10007801D01*
X6904913Y-10007801D02*
X6923961Y-10017325D01*
X6923961Y-10017325D02*
X6933484Y-10026849D01*
X6933484Y-10026849D02*
X6943008Y-10045896D01*
X6943008Y-10045896D02*
X6943008Y-10093515D01*
X6943008Y-10093515D02*
X6933484Y-10112563D01*
X6933484Y-10112563D02*
X6923961Y-10122087D01*
X6923961Y-10122087D02*
X6904913Y-10131611D01*
X6904913Y-10131611D02*
X6847770Y-10131611D01*
X6847770Y-10131611D02*
X6828723Y-10122087D01*
X6828723Y-10122087D02*
X6819199Y-10112563D01*
X7066818Y-9931611D02*
X7085865Y-9931611D01*
X7085865Y-9931611D02*
X7104913Y-9941135D01*
X7104913Y-9941135D02*
X7114437Y-9950658D01*
X7114437Y-9950658D02*
X7123961Y-9969706D01*
X7123961Y-9969706D02*
X7133484Y-10007801D01*
X7133484Y-10007801D02*
X7133484Y-10055420D01*
X7133484Y-10055420D02*
X7123961Y-10093515D01*
X7123961Y-10093515D02*
X7114437Y-10112563D01*
X7114437Y-10112563D02*
X7104913Y-10122087D01*
X7104913Y-10122087D02*
X7085865Y-10131611D01*
X7085865Y-10131611D02*
X7066818Y-10131611D01*
X7066818Y-10131611D02*
X7047770Y-10122087D01*
X7047770Y-10122087D02*
X7038246Y-10112563D01*
X7038246Y-10112563D02*
X7028723Y-10093515D01*
X7028723Y-10093515D02*
X7019199Y-10055420D01*
X7019199Y-10055420D02*
X7019199Y-10007801D01*
X7019199Y-10007801D02*
X7028723Y-9969706D01*
X7028723Y-9969706D02*
X7038246Y-9950658D01*
X7038246Y-9950658D02*
X7047770Y-9941135D01*
X7047770Y-9941135D02*
X7066818Y-9931611D01*
X7257294Y-9931611D02*
X7276342Y-9931611D01*
X7276342Y-9931611D02*
X7295389Y-9941135D01*
X7295389Y-9941135D02*
X7304913Y-9950658D01*
X7304913Y-9950658D02*
X7314437Y-9969706D01*
X7314437Y-9969706D02*
X7323961Y-10007801D01*
X7323961Y-10007801D02*
X7323961Y-10055420D01*
X7323961Y-10055420D02*
X7314437Y-10093515D01*
X7314437Y-10093515D02*
X7304913Y-10112563D01*
X7304913Y-10112563D02*
X7295389Y-10122087D01*
X7295389Y-10122087D02*
X7276342Y-10131611D01*
X7276342Y-10131611D02*
X7257294Y-10131611D01*
X7257294Y-10131611D02*
X7238246Y-10122087D01*
X7238246Y-10122087D02*
X7228723Y-10112563D01*
X7228723Y-10112563D02*
X7219199Y-10093515D01*
X7219199Y-10093515D02*
X7209675Y-10055420D01*
X7209675Y-10055420D02*
X7209675Y-10007801D01*
X7209675Y-10007801D02*
X7219199Y-9969706D01*
X7219199Y-9969706D02*
X7228723Y-9950658D01*
X7228723Y-9950658D02*
X7238246Y-9941135D01*
X7238246Y-9941135D02*
X7257294Y-9931611D01*
X7409675Y-10131611D02*
X7409675Y-9998277D01*
X7409675Y-10017325D02*
X7419199Y-10007801D01*
X7419199Y-10007801D02*
X7438246Y-9998277D01*
X7438246Y-9998277D02*
X7466818Y-9998277D01*
X7466818Y-9998277D02*
X7485865Y-10007801D01*
X7485865Y-10007801D02*
X7495389Y-10026849D01*
X7495389Y-10026849D02*
X7495389Y-10131611D01*
X7495389Y-10026849D02*
X7504913Y-10007801D01*
X7504913Y-10007801D02*
X7523961Y-9998277D01*
X7523961Y-9998277D02*
X7552532Y-9998277D01*
X7552532Y-9998277D02*
X7571580Y-10007801D01*
X7571580Y-10007801D02*
X7581104Y-10026849D01*
X7581104Y-10026849D02*
X7581104Y-10131611D01*
X7676342Y-10131611D02*
X7676342Y-9998277D01*
X7676342Y-10017325D02*
X7685865Y-10007801D01*
X7685865Y-10007801D02*
X7704913Y-9998277D01*
X7704913Y-9998277D02*
X7733485Y-9998277D01*
X7733485Y-9998277D02*
X7752532Y-10007801D01*
X7752532Y-10007801D02*
X7762056Y-10026849D01*
X7762056Y-10026849D02*
X7762056Y-10131611D01*
X7762056Y-10026849D02*
X7771580Y-10007801D01*
X7771580Y-10007801D02*
X7790627Y-9998277D01*
X7790627Y-9998277D02*
X7819199Y-9998277D01*
X7819199Y-9998277D02*
X7838246Y-10007801D01*
X7838246Y-10007801D02*
X7847770Y-10026849D01*
X7847770Y-10026849D02*
X7847770Y-10131611D01*
X8238246Y-9922087D02*
X8066818Y-10179230D01*
X8495389Y-9931611D02*
X8514437Y-9931611D01*
X8514437Y-9931611D02*
X8533485Y-9941135D01*
X8533485Y-9941135D02*
X8543009Y-9950658D01*
X8543009Y-9950658D02*
X8552532Y-9969706D01*
X8552532Y-9969706D02*
X8562056Y-10007801D01*
X8562056Y-10007801D02*
X8562056Y-10055420D01*
X8562056Y-10055420D02*
X8552532Y-10093515D01*
X8552532Y-10093515D02*
X8543009Y-10112563D01*
X8543009Y-10112563D02*
X8533485Y-10122087D01*
X8533485Y-10122087D02*
X8514437Y-10131611D01*
X8514437Y-10131611D02*
X8495389Y-10131611D01*
X8495389Y-10131611D02*
X8476342Y-10122087D01*
X8476342Y-10122087D02*
X8466818Y-10112563D01*
X8466818Y-10112563D02*
X8457294Y-10093515D01*
X8457294Y-10093515D02*
X8447770Y-10055420D01*
X8447770Y-10055420D02*
X8447770Y-10007801D01*
X8447770Y-10007801D02*
X8457294Y-9969706D01*
X8457294Y-9969706D02*
X8466818Y-9950658D01*
X8466818Y-9950658D02*
X8476342Y-9941135D01*
X8476342Y-9941135D02*
X8495389Y-9931611D01*
X8647770Y-10112563D02*
X8657294Y-10122087D01*
X8657294Y-10122087D02*
X8647770Y-10131611D01*
X8647770Y-10131611D02*
X8638247Y-10122087D01*
X8638247Y-10122087D02*
X8647770Y-10112563D01*
X8647770Y-10112563D02*
X8647770Y-10131611D01*
X8781104Y-9931611D02*
X8800151Y-9931611D01*
X8800151Y-9931611D02*
X8819199Y-9941135D01*
X8819199Y-9941135D02*
X8828723Y-9950658D01*
X8828723Y-9950658D02*
X8838247Y-9969706D01*
X8838247Y-9969706D02*
X8847770Y-10007801D01*
X8847770Y-10007801D02*
X8847770Y-10055420D01*
X8847770Y-10055420D02*
X8838247Y-10093515D01*
X8838247Y-10093515D02*
X8828723Y-10112563D01*
X8828723Y-10112563D02*
X8819199Y-10122087D01*
X8819199Y-10122087D02*
X8800151Y-10131611D01*
X8800151Y-10131611D02*
X8781104Y-10131611D01*
X8781104Y-10131611D02*
X8762056Y-10122087D01*
X8762056Y-10122087D02*
X8752532Y-10112563D01*
X8752532Y-10112563D02*
X8743009Y-10093515D01*
X8743009Y-10093515D02*
X8733485Y-10055420D01*
X8733485Y-10055420D02*
X8733485Y-10007801D01*
X8733485Y-10007801D02*
X8743009Y-9969706D01*
X8743009Y-9969706D02*
X8752532Y-9950658D01*
X8752532Y-9950658D02*
X8762056Y-9941135D01*
X8762056Y-9941135D02*
X8781104Y-9931611D01*
X9028723Y-9931611D02*
X8933485Y-9931611D01*
X8933485Y-9931611D02*
X8923961Y-10026849D01*
X8923961Y-10026849D02*
X8933485Y-10017325D01*
X8933485Y-10017325D02*
X8952532Y-10007801D01*
X8952532Y-10007801D02*
X9000151Y-10007801D01*
X9000151Y-10007801D02*
X9019199Y-10017325D01*
X9019199Y-10017325D02*
X9028723Y-10026849D01*
X9028723Y-10026849D02*
X9038247Y-10045896D01*
X9038247Y-10045896D02*
X9038247Y-10093515D01*
X9038247Y-10093515D02*
X9028723Y-10112563D01*
X9028723Y-10112563D02*
X9019199Y-10122087D01*
X9019199Y-10122087D02*
X9000151Y-10131611D01*
X9000151Y-10131611D02*
X8952532Y-10131611D01*
X8952532Y-10131611D02*
X8933485Y-10122087D01*
X8933485Y-10122087D02*
X8923961Y-10112563D01*
X9228723Y-10131611D02*
X9114437Y-10131611D01*
X9171580Y-10131611D02*
X9171580Y-9931611D01*
X9171580Y-9931611D02*
X9152532Y-9960182D01*
X9152532Y-9960182D02*
X9133485Y-9979230D01*
X9133485Y-9979230D02*
X9114437Y-9988754D01*
X9304913Y-9950658D02*
X9314437Y-9941135D01*
X9314437Y-9941135D02*
X9333485Y-9931611D01*
X9333485Y-9931611D02*
X9381104Y-9931611D01*
X9381104Y-9931611D02*
X9400151Y-9941135D01*
X9400151Y-9941135D02*
X9409675Y-9950658D01*
X9409675Y-9950658D02*
X9419199Y-9969706D01*
X9419199Y-9969706D02*
X9419199Y-9988754D01*
X9419199Y-9988754D02*
X9409675Y-10017325D01*
X9409675Y-10017325D02*
X9295390Y-10131611D01*
X9295390Y-10131611D02*
X9419199Y-10131611D01*
X9495390Y-9931611D02*
X9495390Y-9969706D01*
X9571580Y-9931611D02*
X9571580Y-9969706D01*
X9866818Y-10207801D02*
X9857294Y-10198277D01*
X9857294Y-10198277D02*
X9838247Y-10169706D01*
X9838247Y-10169706D02*
X9828723Y-10150658D01*
X9828723Y-10150658D02*
X9819199Y-10122087D01*
X9819199Y-10122087D02*
X9809675Y-10074468D01*
X9809675Y-10074468D02*
X9809675Y-10036373D01*
X9809675Y-10036373D02*
X9819199Y-9988754D01*
X9819199Y-9988754D02*
X9828723Y-9960182D01*
X9828723Y-9960182D02*
X9838247Y-9941135D01*
X9838247Y-9941135D02*
X9857294Y-9912563D01*
X9857294Y-9912563D02*
X9866818Y-9903039D01*
X9923961Y-9931611D02*
X10057294Y-9931611D01*
X10057294Y-9931611D02*
X9971580Y-10131611D01*
X10285866Y-10131611D02*
X10285866Y-9931611D01*
X10371580Y-10131611D02*
X10371580Y-10026849D01*
X10371580Y-10026849D02*
X10362056Y-10007801D01*
X10362056Y-10007801D02*
X10343009Y-9998277D01*
X10343009Y-9998277D02*
X10314437Y-9998277D01*
X10314437Y-9998277D02*
X10295390Y-10007801D01*
X10295390Y-10007801D02*
X10285866Y-10017325D01*
X10495390Y-10131611D02*
X10476342Y-10122087D01*
X10476342Y-10122087D02*
X10466818Y-10112563D01*
X10466818Y-10112563D02*
X10457294Y-10093515D01*
X10457294Y-10093515D02*
X10457294Y-10036373D01*
X10457294Y-10036373D02*
X10466818Y-10017325D01*
X10466818Y-10017325D02*
X10476342Y-10007801D01*
X10476342Y-10007801D02*
X10495390Y-9998277D01*
X10495390Y-9998277D02*
X10523961Y-9998277D01*
X10523961Y-9998277D02*
X10543009Y-10007801D01*
X10543009Y-10007801D02*
X10552533Y-10017325D01*
X10552533Y-10017325D02*
X10562056Y-10036373D01*
X10562056Y-10036373D02*
X10562056Y-10093515D01*
X10562056Y-10093515D02*
X10552533Y-10112563D01*
X10552533Y-10112563D02*
X10543009Y-10122087D01*
X10543009Y-10122087D02*
X10523961Y-10131611D01*
X10523961Y-10131611D02*
X10495390Y-10131611D01*
X10676342Y-10131611D02*
X10657294Y-10122087D01*
X10657294Y-10122087D02*
X10647771Y-10103039D01*
X10647771Y-10103039D02*
X10647771Y-9931611D01*
X10828723Y-10122087D02*
X10809675Y-10131611D01*
X10809675Y-10131611D02*
X10771580Y-10131611D01*
X10771580Y-10131611D02*
X10752533Y-10122087D01*
X10752533Y-10122087D02*
X10743009Y-10103039D01*
X10743009Y-10103039D02*
X10743009Y-10026849D01*
X10743009Y-10026849D02*
X10752533Y-10007801D01*
X10752533Y-10007801D02*
X10771580Y-9998277D01*
X10771580Y-9998277D02*
X10809675Y-9998277D01*
X10809675Y-9998277D02*
X10828723Y-10007801D01*
X10828723Y-10007801D02*
X10838247Y-10026849D01*
X10838247Y-10026849D02*
X10838247Y-10045896D01*
X10838247Y-10045896D02*
X10743009Y-10064944D01*
X10914437Y-10122087D02*
X10933485Y-10131611D01*
X10933485Y-10131611D02*
X10971580Y-10131611D01*
X10971580Y-10131611D02*
X10990628Y-10122087D01*
X10990628Y-10122087D02*
X11000152Y-10103039D01*
X11000152Y-10103039D02*
X11000152Y-10093515D01*
X11000152Y-10093515D02*
X10990628Y-10074468D01*
X10990628Y-10074468D02*
X10971580Y-10064944D01*
X10971580Y-10064944D02*
X10943009Y-10064944D01*
X10943009Y-10064944D02*
X10923961Y-10055420D01*
X10923961Y-10055420D02*
X10914437Y-10036373D01*
X10914437Y-10036373D02*
X10914437Y-10026849D01*
X10914437Y-10026849D02*
X10923961Y-10007801D01*
X10923961Y-10007801D02*
X10943009Y-9998277D01*
X10943009Y-9998277D02*
X10971580Y-9998277D01*
X10971580Y-9998277D02*
X10990628Y-10007801D01*
X11066818Y-10207801D02*
X11076342Y-10198277D01*
X11076342Y-10198277D02*
X11095390Y-10169706D01*
X11095390Y-10169706D02*
X11104914Y-10150658D01*
X11104914Y-10150658D02*
X11114437Y-10122087D01*
X11114437Y-10122087D02*
X11123961Y-10074468D01*
X11123961Y-10074468D02*
X11123961Y-10036373D01*
X11123961Y-10036373D02*
X11114437Y-9988754D01*
X11114437Y-9988754D02*
X11104914Y-9960182D01*
X11104914Y-9960182D02*
X11095390Y-9941135D01*
X11095390Y-9941135D02*
X11076342Y-9912563D01*
X11076342Y-9912563D02*
X11066818Y-9903039D01*
M02*
