%TF.GenerationSoftware,KiCad,Pcbnew,7.0.2*%
%TF.CreationDate,2023-05-06T18:38:25+05:30*%
%TF.ProjectId,Mod-Ckt-Pulser,4d6f642d-436b-4742-9d50-756c7365722e,rev?*%
%TF.SameCoordinates,Original*%
%TF.FileFunction,Drillmap*%
%TF.FilePolarity,Positive*%
%FSLAX45Y45*%
G04 Gerber Fmt 4.5, Leading zero omitted, Abs format (unit mm)*
G04 Created by KiCad (PCBNEW 7.0.2) date 2023-05-06 18:38:25*
%MOMM*%
%LPD*%
G01*
G04 APERTURE LIST*
%ADD10C,0.100000*%
%ADD11C,0.200000*%
G04 APERTURE END LIST*
D10*
X10014082Y-8601930D02*
G75*
G03*
X10316087Y-8302975I1525J300480D01*
G01*
X6311070Y-8300082D02*
G75*
G03*
X6610024Y-8602087I300480J-1525D01*
G01*
X6611918Y-5346070D02*
G75*
G03*
X6309913Y-5645024I-1525J-300480D01*
G01*
X10310930Y-5647918D02*
G75*
G03*
X10011976Y-5345913I-300480J1525D01*
G01*
X6610024Y-8602087D02*
X10014082Y-8601930D01*
X6309913Y-5645024D02*
X6311070Y-8300082D01*
X10011976Y-5345913D02*
X6611918Y-5346070D01*
X10310930Y-5647918D02*
X10316087Y-8302975D01*
D11*
X6552532Y-8919611D02*
X6552532Y-8719611D01*
X6552532Y-8719611D02*
X6600151Y-8719611D01*
X6600151Y-8719611D02*
X6628723Y-8729135D01*
X6628723Y-8729135D02*
X6647770Y-8748182D01*
X6647770Y-8748182D02*
X6657294Y-8767230D01*
X6657294Y-8767230D02*
X6666818Y-8805325D01*
X6666818Y-8805325D02*
X6666818Y-8833896D01*
X6666818Y-8833896D02*
X6657294Y-8871992D01*
X6657294Y-8871992D02*
X6647770Y-8891039D01*
X6647770Y-8891039D02*
X6628723Y-8910087D01*
X6628723Y-8910087D02*
X6600151Y-8919611D01*
X6600151Y-8919611D02*
X6552532Y-8919611D01*
X6752532Y-8919611D02*
X6752532Y-8786277D01*
X6752532Y-8824373D02*
X6762056Y-8805325D01*
X6762056Y-8805325D02*
X6771580Y-8795801D01*
X6771580Y-8795801D02*
X6790627Y-8786277D01*
X6790627Y-8786277D02*
X6809675Y-8786277D01*
X6876342Y-8919611D02*
X6876342Y-8786277D01*
X6876342Y-8719611D02*
X6866818Y-8729135D01*
X6866818Y-8729135D02*
X6876342Y-8738658D01*
X6876342Y-8738658D02*
X6885865Y-8729135D01*
X6885865Y-8729135D02*
X6876342Y-8719611D01*
X6876342Y-8719611D02*
X6876342Y-8738658D01*
X7000151Y-8919611D02*
X6981103Y-8910087D01*
X6981103Y-8910087D02*
X6971580Y-8891039D01*
X6971580Y-8891039D02*
X6971580Y-8719611D01*
X7104913Y-8919611D02*
X7085865Y-8910087D01*
X7085865Y-8910087D02*
X7076342Y-8891039D01*
X7076342Y-8891039D02*
X7076342Y-8719611D01*
X7333484Y-8919611D02*
X7333484Y-8719611D01*
X7333484Y-8719611D02*
X7400151Y-8862468D01*
X7400151Y-8862468D02*
X7466818Y-8719611D01*
X7466818Y-8719611D02*
X7466818Y-8919611D01*
X7647770Y-8919611D02*
X7647770Y-8814849D01*
X7647770Y-8814849D02*
X7638246Y-8795801D01*
X7638246Y-8795801D02*
X7619199Y-8786277D01*
X7619199Y-8786277D02*
X7581103Y-8786277D01*
X7581103Y-8786277D02*
X7562056Y-8795801D01*
X7647770Y-8910087D02*
X7628723Y-8919611D01*
X7628723Y-8919611D02*
X7581103Y-8919611D01*
X7581103Y-8919611D02*
X7562056Y-8910087D01*
X7562056Y-8910087D02*
X7552532Y-8891039D01*
X7552532Y-8891039D02*
X7552532Y-8871992D01*
X7552532Y-8871992D02*
X7562056Y-8852944D01*
X7562056Y-8852944D02*
X7581103Y-8843420D01*
X7581103Y-8843420D02*
X7628723Y-8843420D01*
X7628723Y-8843420D02*
X7647770Y-8833896D01*
X7743008Y-8786277D02*
X7743008Y-8986277D01*
X7743008Y-8795801D02*
X7762056Y-8786277D01*
X7762056Y-8786277D02*
X7800151Y-8786277D01*
X7800151Y-8786277D02*
X7819199Y-8795801D01*
X7819199Y-8795801D02*
X7828723Y-8805325D01*
X7828723Y-8805325D02*
X7838246Y-8824373D01*
X7838246Y-8824373D02*
X7838246Y-8881515D01*
X7838246Y-8881515D02*
X7828723Y-8900563D01*
X7828723Y-8900563D02*
X7819199Y-8910087D01*
X7819199Y-8910087D02*
X7800151Y-8919611D01*
X7800151Y-8919611D02*
X7762056Y-8919611D01*
X7762056Y-8919611D02*
X7743008Y-8910087D01*
X7923961Y-8900563D02*
X7933484Y-8910087D01*
X7933484Y-8910087D02*
X7923961Y-8919611D01*
X7923961Y-8919611D02*
X7914437Y-8910087D01*
X7914437Y-8910087D02*
X7923961Y-8900563D01*
X7923961Y-8900563D02*
X7923961Y-8919611D01*
X7923961Y-8795801D02*
X7933484Y-8805325D01*
X7933484Y-8805325D02*
X7923961Y-8814849D01*
X7923961Y-8814849D02*
X7914437Y-8805325D01*
X7914437Y-8805325D02*
X7923961Y-8795801D01*
X7923961Y-8795801D02*
X7923961Y-8814849D01*
M02*
